<svg xmlns="http://www.w3.org/2000/svg" xmlns:xlink="http://www.w3.org/1999/xlink" width="192" zoomAndPan="magnify" viewBox="0 0 144 143.999998" height="192" preserveAspectRatio="xMidYMid meet" version="1.0"><defs><g/><clipPath id="a5691f336c"><path d="M 14.398438 14.398438 L 129.628906 14.398438 L 129.628906 50.773438 L 14.398438 50.773438 Z M 14.398438 14.398438 " clip-rule="nonzero"/></clipPath><clipPath id="9da40f3808"><path d="M 21.148438 14.398438 L 122.851562 14.398438 C 124.640625 14.398438 126.355469 15.109375 127.621094 16.378906 C 128.890625 17.644531 129.601562 19.359375 129.601562 21.148438 L 129.601562 44.023438 C 129.601562 47.75 126.578125 50.773438 122.851562 50.773438 L 21.148438 50.773438 C 19.359375 50.773438 17.644531 50.0625 16.378906 48.796875 C 15.109375 47.53125 14.398438 45.8125 14.398438 44.023438 L 14.398438 21.148438 C 14.398438 17.421875 17.421875 14.398438 21.148438 14.398438 Z M 21.148438 14.398438 " clip-rule="nonzero"/></clipPath><clipPath id="26daf3729e"><path d="M 0.398438 0.398438 L 115.628906 0.398438 L 115.628906 36.773438 L 0.398438 36.773438 Z M 0.398438 0.398438 " clip-rule="nonzero"/></clipPath><clipPath id="6c7c939574"><path d="M 7.148438 0.398438 L 108.851562 0.398438 C 110.640625 0.398438 112.355469 1.109375 113.621094 2.378906 C 114.890625 3.644531 115.601562 5.359375 115.601562 7.148438 L 115.601562 30.023438 C 115.601562 33.75 112.578125 36.773438 108.851562 36.773438 L 7.148438 36.773438 C 5.359375 36.773438 3.644531 36.0625 2.378906 34.796875 C 1.109375 33.53125 0.398438 31.8125 0.398438 30.023438 L 0.398438 7.148438 C 0.398438 3.421875 3.421875 0.398438 7.148438 0.398438 Z M 7.148438 0.398438 " clip-rule="nonzero"/></clipPath><clipPath id="7fb09bd532"><rect x="0" width="116" y="0" height="37"/></clipPath><clipPath id="bbdb8dc897"><path d="M 14.414062 14.398438 L 129.808594 14.398438 L 129.808594 50.398438 L 14.414062 50.398438 Z M 14.414062 14.398438 " clip-rule="nonzero"/></clipPath><clipPath id="84bdc708e5"><path d="M 21.160156 14.398438 L 122.835938 14.398438 C 124.625 14.398438 126.339844 15.109375 127.605469 16.375 C 128.871094 17.640625 129.582031 19.359375 129.582031 21.148438 L 129.582031 44.015625 C 129.582031 47.742188 126.5625 50.761719 122.835938 50.761719 L 21.160156 50.761719 C 19.371094 50.761719 17.65625 50.050781 16.390625 48.785156 C 15.125 47.519531 14.414062 45.804688 14.414062 44.015625 L 14.414062 21.148438 C 14.414062 17.421875 17.433594 14.398438 21.160156 14.398438 Z M 21.160156 14.398438 " clip-rule="nonzero"/></clipPath><clipPath id="e25ef24be9"><path d="M 14.398438 53.8125 L 129.628906 53.8125 L 129.628906 90.1875 L 14.398438 90.1875 Z M 14.398438 53.8125 " clip-rule="nonzero"/></clipPath><clipPath id="d219f08142"><path d="M 21.148438 53.8125 L 122.851562 53.8125 C 126.578125 53.8125 129.601562 56.835938 129.601562 60.5625 L 129.601562 83.4375 C 129.601562 87.164062 126.578125 90.1875 122.851562 90.1875 L 21.148438 90.1875 C 17.421875 90.1875 14.398438 87.164062 14.398438 83.4375 L 14.398438 60.5625 C 14.398438 56.835938 17.421875 53.8125 21.148438 53.8125 Z M 21.148438 53.8125 " clip-rule="nonzero"/></clipPath><clipPath id="da38ee6976"><path d="M 0.398438 0.8125 L 115.628906 0.8125 L 115.628906 37.1875 L 0.398438 37.1875 Z M 0.398438 0.8125 " clip-rule="nonzero"/></clipPath><clipPath id="96c2b6dd43"><path d="M 7.148438 0.8125 L 108.851562 0.8125 C 112.578125 0.8125 115.601562 3.835938 115.601562 7.5625 L 115.601562 30.4375 C 115.601562 34.164062 112.578125 37.1875 108.851562 37.1875 L 7.148438 37.1875 C 3.421875 37.1875 0.398438 34.164062 0.398438 30.4375 L 0.398438 7.5625 C 0.398438 3.835938 3.421875 0.8125 7.148438 0.8125 Z M 7.148438 0.8125 " clip-rule="nonzero"/></clipPath><clipPath id="815a12da60"><rect x="0" width="116" y="0" height="38"/></clipPath><clipPath id="bea9ad53de"><path d="M 14.414062 53.8125 L 129.808594 53.8125 L 129.808594 89.8125 L 14.414062 89.8125 Z M 14.414062 53.8125 " clip-rule="nonzero"/></clipPath><clipPath id="0af0fd35e0"><path d="M 21.160156 53.8125 L 122.835938 53.8125 C 126.5625 53.8125 129.582031 56.835938 129.582031 60.5625 L 129.582031 83.429688 C 129.582031 87.15625 126.5625 90.175781 122.835938 90.175781 L 21.160156 90.175781 C 17.433594 90.175781 14.414062 87.15625 14.414062 83.429688 L 14.414062 60.5625 C 14.414062 56.835938 17.433594 53.8125 21.160156 53.8125 Z M 21.160156 53.8125 " clip-rule="nonzero"/></clipPath><clipPath id="56993506bd"><path d="M 84 83 L 129 83 L 129 129.75 L 84 129.75 Z M 84 83 " clip-rule="nonzero"/></clipPath><clipPath id="c6b6dd87b6"><path d="M 73.367188 85 L 82 85 L 82 90 L 73.367188 90 Z M 73.367188 85 " clip-rule="nonzero"/></clipPath></defs><rect x="-14.4" width="172.8" fill="#ffffff" y="-14.4" height="172.799997" fill-opacity="1"/><rect x="-14.4" width="172.8" fill="#ffffff" y="-14.4" height="172.799997" fill-opacity="1"/><g clip-path="url(#a5691f336c)"><g clip-path="url(#9da40f3808)"><g transform="matrix(1, 0, 0, 1, 14, 14)"><g clip-path="url(#7fb09bd532)"><g clip-path="url(#26daf3729e)"><g clip-path="url(#6c7c939574)"><path fill="#ffffff" d="M 0.398438 0.398438 L 115.628906 0.398438 L 115.628906 36.773438 L 0.398438 36.773438 Z M 0.398438 0.398438 " fill-opacity="1" fill-rule="nonzero"/></g></g></g></g></g></g><g clip-path="url(#bbdb8dc897)"><g clip-path="url(#84bdc708e5)"><path stroke-linecap="butt" transform="matrix(0.75, 0, 0, 0.75, 14.412361, 14.400002)" fill="none" stroke-linejoin="miter" d="M 8.99706 -0.00208615 L 144.564768 -0.00208615 C 146.950185 -0.00208615 149.236643 0.945831 150.924143 2.633331 C 152.611643 4.32083 153.55956 6.612497 153.55956 8.997914 L 153.55956 39.487497 C 153.55956 44.456247 149.533518 48.482289 144.564768 48.482289 L 8.99706 48.482289 C 6.611644 48.482289 4.325185 47.534372 2.637685 45.846872 C 0.950185 44.159372 0.00226883 41.872914 0.00226883 39.487497 L 0.00226883 8.997914 C 0.00226883 4.029164 4.02831 -0.00208615 8.99706 -0.00208615 Z M 8.99706 -0.00208615 " stroke="#1a1a1a" stroke-width="8" stroke-opacity="1" stroke-miterlimit="4"/></g></g><g fill="#1a1a1a" fill-opacity="1"><g transform="translate(20.400001, 38.400001)"><g><path d="M 6.796875 0.9375 L 6.796875 -5.875 C 6.273438 -4.675781 5.660156 -3.660156 4.953125 -2.828125 C 4.253906 -2.003906 3.582031 -1.332031 2.9375 -0.8125 C 2.300781 -0.300781 1.773438 0.0625 1.359375 0.28125 C 0.953125 0.507812 0.742188 0.625 0.734375 0.625 L 0.734375 -2.1875 C 0.742188 -2.1875 0.90625 -2.285156 1.21875 -2.484375 C 1.53125 -2.679688 1.9375 -3 2.4375 -3.4375 C 2.9375 -3.882812 3.453125 -4.476562 3.984375 -5.21875 C 4.523438 -5.96875 5.023438 -6.894531 5.484375 -8 L 0.734375 -8 L 0.734375 -10.390625 L 6.796875 -10.390625 L 6.796875 -12.34375 L 9.234375 -12.34375 L 9.234375 -10.390625 L 11.015625 -10.390625 L 11.015625 -8 L 9.234375 -8 L 9.234375 0.9375 Z M 6.796875 0.9375 "/></g></g></g><g fill="#1a1a1a" fill-opacity="1"><g transform="translate(32.084647, 38.400001)"><g><path d="M 0.859375 -9.140625 L 0.859375 -11.578125 L 5.734375 -11.578125 L 5.734375 -9.140625 Z M 11.25 -8.953125 C 10.726562 -7.046875 10.03125 -5.492188 9.15625 -4.296875 C 8.28125 -3.097656 7.367188 -2.171875 6.421875 -1.515625 C 5.484375 -0.867188 4.59375 -0.410156 3.75 -0.140625 C 2.90625 0.128906 2.210938 0.285156 1.671875 0.328125 C 1.140625 0.378906 0.867188 0.398438 0.859375 0.390625 L 0.859375 -2.15625 C 0.867188 -2.144531 1.082031 -2.148438 1.5 -2.171875 C 1.914062 -2.203125 2.445312 -2.3125 3.09375 -2.5 C 3.75 -2.6875 4.4375 -3.046875 5.15625 -3.578125 C 5.875 -4.109375 6.535156 -4.78125 7.140625 -5.59375 C 7.753906 -6.414062 8.296875 -7.535156 8.765625 -8.953125 Z M 11.25 -8.953125 "/></g></g></g><g fill="#1a1a1a" fill-opacity="1"><g transform="translate(44.019232, 38.400001)"><g><path d="M 0.9375 -5.625 L 0.9375 -7.953125 L 11.0625 -7.953125 C 11.0625 -6.585938 10.867188 -5.40625 10.484375 -4.40625 C 10.097656 -3.40625 9.550781 -2.585938 8.84375 -1.953125 C 8.132812 -1.316406 7.414062 -0.828125 6.6875 -0.484375 C 5.957031 -0.140625 5.265625 0.101562 4.609375 0.25 C 3.953125 0.40625 3.421875 0.507812 3.015625 0.5625 C 2.609375 0.613281 2.394531 0.640625 2.375 0.640625 L 2.375 -1.875 C 2.382812 -1.863281 2.554688 -1.878906 2.890625 -1.921875 C 3.222656 -1.960938 3.644531 -2.050781 4.15625 -2.1875 C 4.664062 -2.320312 5.195312 -2.523438 5.75 -2.796875 C 6.300781 -3.066406 6.785156 -3.429688 7.203125 -3.890625 C 7.628906 -4.347656 7.9375 -4.925781 8.125 -5.625 Z M 1.375 -9.421875 L 1.375 -11.75 L 10.375 -11.75 L 10.375 -9.421875 Z M 1.375 -9.421875 "/></g></g></g><g fill="#1a1a1a" fill-opacity="1"><g transform="translate(56.078786, 38.400001)"><g><path d="M 11.21875 -11.984375 C 10.78125 -11.078125 10.242188 -10.222656 9.609375 -9.421875 C 8.984375 -8.617188 8.410156 -7.921875 7.890625 -7.328125 L 7.890625 0.890625 L 5.421875 0.890625 L 5.421875 -5.421875 C 4.617188 -4.773438 3.847656 -4.257812 3.109375 -3.875 C 2.367188 -3.488281 1.78125 -3.21875 1.34375 -3.0625 C 0.90625 -2.914062 0.679688 -2.84375 0.671875 -2.84375 L 0.671875 -5.359375 C 0.679688 -5.359375 0.945312 -5.460938 1.46875 -5.671875 C 1.988281 -5.890625 2.648438 -6.242188 3.453125 -6.734375 C 4.265625 -7.234375 5.109375 -7.910156 5.984375 -8.765625 C 6.859375 -9.628906 7.664062 -10.703125 8.40625 -11.984375 Z M 11.21875 -11.984375 "/></g></g></g><g fill="#1a1a1a" fill-opacity="1"><g transform="translate(67.716569, 38.400001)"><g><path d="M 0.859375 -9.140625 L 0.859375 -11.578125 L 5.734375 -11.578125 L 5.734375 -9.140625 Z M 11.25 -8.953125 C 10.726562 -7.046875 10.03125 -5.492188 9.15625 -4.296875 C 8.28125 -3.097656 7.367188 -2.171875 6.421875 -1.515625 C 5.484375 -0.867188 4.59375 -0.410156 3.75 -0.140625 C 2.90625 0.128906 2.210938 0.285156 1.671875 0.328125 C 1.140625 0.378906 0.867188 0.398438 0.859375 0.390625 L 0.859375 -2.15625 C 0.867188 -2.144531 1.082031 -2.148438 1.5 -2.171875 C 1.914062 -2.203125 2.445312 -2.3125 3.09375 -2.5 C 3.75 -2.6875 4.4375 -3.046875 5.15625 -3.578125 C 5.875 -4.109375 6.535156 -4.78125 7.140625 -5.59375 C 7.753906 -6.414062 8.296875 -7.535156 8.765625 -8.953125 Z M 11.25 -8.953125 "/></g></g></g><g clip-path="url(#e25ef24be9)"><g clip-path="url(#d219f08142)"><g transform="matrix(1, 0, 0, 1, 14, 53)"><g clip-path="url(#815a12da60)"><g clip-path="url(#da38ee6976)"><g clip-path="url(#96c2b6dd43)"><path fill="#ffffff" d="M 0.398438 0.8125 L 115.628906 0.8125 L 115.628906 37.1875 L 0.398438 37.1875 Z M 0.398438 0.8125 " fill-opacity="1" fill-rule="nonzero"/></g></g></g></g></g></g><g clip-path="url(#bea9ad53de)"><g clip-path="url(#0af0fd35e0)"><path stroke-linecap="butt" transform="matrix(0.75, 0, 0, 0.75, 14.412361, 53.813718)" fill="none" stroke-linejoin="miter" d="M 8.99706 -0.00162403 L 144.564768 -0.00162403 C 149.533518 -0.00162403 153.55956 4.029626 153.55956 8.998376 L 153.55956 39.487959 C 153.55956 44.456709 149.533518 48.482751 144.564768 48.482751 L 8.99706 48.482751 C 4.02831 48.482751 0.00226883 44.456709 0.00226883 39.487959 L 0.00226883 8.998376 C 0.00226883 4.029626 4.02831 -0.00162403 8.99706 -0.00162403 Z M 8.99706 -0.00162403 " stroke="#ff3131" stroke-width="8" stroke-opacity="1" stroke-miterlimit="4"/></g></g><g fill="#ff751f" fill-opacity="1"><g transform="translate(20.400001, 77.813717)"><g><path d="M 10.21875 -2.796875 C 10.957031 -3.304688 11.5625 -3.878906 12.03125 -4.515625 L 8.203125 -4.515625 C 8.742188 -3.890625 9.414062 -3.316406 10.21875 -2.796875 Z M 2.5 1.34375 C 2.34375 1.34375 1.859375 1.316406 1.046875 1.265625 L 0.90625 -0.703125 C 1.570312 -0.648438 1.972656 -0.625 2.109375 -0.625 C 2.203125 -0.625 2.253906 -0.648438 2.265625 -0.703125 C 2.285156 -0.753906 2.296875 -0.941406 2.296875 -1.265625 L 2.296875 -2.859375 C 1.578125 -2.710938 1.132812 -2.628906 0.96875 -2.609375 L 0.828125 -4.78125 C 1.546875 -4.90625 2.035156 -5 2.296875 -5.0625 L 2.296875 -8.4375 L 0.828125 -8.4375 L 0.828125 -10.484375 L 2.296875 -10.484375 L 2.296875 -12.921875 L 4.6875 -12.921875 L 4.6875 -10.484375 L 5.90625 -10.484375 L 5.90625 -8.4375 L 4.6875 -8.4375 L 4.6875 -5.609375 C 5.320312 -5.785156 5.65625 -5.878906 5.6875 -5.890625 L 5.6875 -6.515625 L 6.78125 -6.515625 L 5.453125 -7.875 C 6.023438 -8.382812 6.40625 -8.890625 6.59375 -9.390625 C 6.789062 -9.898438 6.890625 -10.6875 6.890625 -11.75 L 6.890625 -12.578125 L 12.984375 -12.578125 L 12.984375 -9.078125 C 12.984375 -8.953125 13 -8.878906 13.03125 -8.859375 C 13.070312 -8.835938 13.164062 -8.828125 13.3125 -8.828125 C 13.5 -8.828125 13.617188 -8.90625 13.671875 -9.0625 C 13.722656 -9.226562 13.773438 -9.773438 13.828125 -10.703125 L 15.546875 -10.4375 C 15.515625 -9.894531 15.492188 -9.503906 15.484375 -9.265625 C 15.472656 -9.035156 15.4375 -8.757812 15.375 -8.4375 C 15.320312 -8.113281 15.28125 -7.898438 15.25 -7.796875 C 15.226562 -7.691406 15.144531 -7.5625 15 -7.40625 C 14.851562 -7.25 14.738281 -7.160156 14.65625 -7.140625 C 14.570312 -7.117188 14.390625 -7.082031 14.109375 -7.03125 C 13.835938 -6.976562 13.597656 -6.953125 13.390625 -6.953125 C 13.191406 -6.953125 12.867188 -6.953125 12.421875 -6.953125 C 11.640625 -6.953125 11.140625 -7.015625 10.921875 -7.140625 C 10.710938 -7.273438 10.609375 -7.554688 10.609375 -7.984375 L 10.609375 -10.5625 L 9.15625 -10.5625 L 9.15625 -10.53125 C 9.144531 -9.65625 8.992188 -8.898438 8.703125 -8.265625 C 8.421875 -7.640625 7.988281 -7.054688 7.40625 -6.515625 L 14.59375 -6.515625 L 14.59375 -4.515625 L 14.53125 -4.515625 L 14.59375 -4.484375 C 14 -3.378906 13.253906 -2.445312 12.359375 -1.6875 C 13.296875 -1.289062 14.34375 -0.953125 15.5 -0.671875 L 14.6875 1.34375 C 13.09375 1 11.601562 0.460938 10.21875 -0.265625 C 9.039062 0.347656 7.582031 0.882812 5.84375 1.34375 L 4.875 -0.6875 C 6.082031 -0.945312 7.148438 -1.269531 8.078125 -1.65625 C 7.421875 -2.1875 6.847656 -2.757812 6.359375 -3.375 L 7.890625 -4.515625 L 6 -4.515625 L 6.09375 -3.84375 C 5.59375 -3.675781 5.125 -3.535156 4.6875 -3.421875 L 4.6875 -1.5 C 4.6875 -0.789062 4.671875 -0.269531 4.640625 0.0625 C 4.609375 0.40625 4.503906 0.6875 4.328125 0.90625 C 4.148438 1.125 3.9375 1.25 3.6875 1.28125 C 3.4375 1.320312 3.039062 1.34375 2.5 1.34375 Z M 2.5 1.34375 "/></g></g></g><g fill="#ff751f" fill-opacity="1"><g transform="translate(36.396094, 77.813717)"><g><path d="M 7.28125 -10.625 L 7.28125 -10.015625 L 8.71875 -10.015625 L 8.71875 -10.625 Z M 3.65625 -6.359375 L 1.5625 -6.359375 L 1.5625 -10.015625 L 4.84375 -10.015625 L 4.84375 -10.625 L 1.03125 -10.625 L 1.03125 -12.53125 L 14.96875 -12.53125 L 14.96875 -10.625 L 11.15625 -10.625 L 11.15625 -10.015625 L 14.4375 -10.015625 L 14.4375 -6.359375 Z M 4.890625 -7.796875 L 4.890625 -8.65625 L 3.65625 -8.65625 L 3.65625 -7.796875 Z M 8.765625 -7.796875 L 8.765625 -8.65625 L 7.234375 -8.65625 L 7.234375 -7.796875 Z M 11.109375 -7.796875 L 12.34375 -7.796875 L 12.34375 -8.65625 L 11.109375 -8.65625 Z M 5.125 -1.890625 L 5.796875 -0.921875 C 5.742188 -0.878906 5.648438 -0.816406 5.515625 -0.734375 C 5.390625 -0.648438 5.300781 -0.585938 5.25 -0.546875 C 5.632812 -0.523438 6.019531 -0.515625 6.40625 -0.515625 C 6.695312 -0.515625 6.867188 -0.535156 6.921875 -0.578125 C 6.984375 -0.617188 7.015625 -0.773438 7.015625 -1.046875 L 7.015625 -1.890625 Z M 2.140625 -4.234375 L 2.140625 -5.921875 L 13.984375 -5.921875 L 13.984375 -4.234375 Z M 14.96875 -3.796875 L 14.96875 -1.890625 L 12.6875 -1.890625 C 13.300781 -1.566406 14.148438 -1.078125 15.234375 -0.421875 L 14.15625 1.390625 C 12.78125 0.554688 11.40625 -0.191406 10.03125 -0.859375 L 10.625 -1.890625 L 9.5625 -1.890625 L 9.5625 -0.890625 C 9.5625 -0.523438 9.550781 -0.234375 9.53125 -0.015625 C 9.519531 0.203125 9.476562 0.40625 9.40625 0.59375 C 9.332031 0.789062 9.242188 0.929688 9.140625 1.015625 C 9.035156 1.109375 8.867188 1.1875 8.640625 1.25 C 8.421875 1.3125 8.179688 1.347656 7.921875 1.359375 C 7.660156 1.378906 7.3125 1.390625 6.875 1.390625 C 6.375 1.390625 5.644531 1.363281 4.6875 1.3125 L 4.59375 -0.125 C 3.664062 0.445312 2.722656 0.929688 1.765625 1.328125 L 0.765625 -0.453125 C 1.816406 -0.890625 2.765625 -1.367188 3.609375 -1.890625 L 1.03125 -1.890625 L 1.03125 -3.796875 Z M 14.96875 -3.796875 "/></g></g></g><g fill="#ff751f" fill-opacity="1"><g transform="translate(52.392187, 77.813717)"><g><path d="M 2.296875 -4.015625 L 2.296875 -7.484375 L 0.703125 -7.484375 L 0.703125 -9.984375 L 2.296875 -9.984375 L 2.296875 -12.171875 L 4.65625 -12.171875 L 4.65625 -9.984375 L 7.640625 -9.984375 L 7.640625 -12.234375 L 10 -12.234375 L 10 -9.984375 L 11.671875 -9.984375 L 11.671875 -7.484375 L 10 -7.484375 L 10 -5.296875 C 9.976562 -4.203125 9.75 -3.285156 9.3125 -2.546875 C 8.875 -1.816406 8.3125 -1.226562 7.625 -0.78125 C 6.9375 -0.34375 6.265625 -0.015625 5.609375 0.203125 C 4.960938 0.421875 4.414062 0.566406 3.96875 0.640625 C 3.53125 0.710938 3.304688 0.75 3.296875 0.75 L 3.296875 -1.78125 C 3.304688 -1.78125 3.457031 -1.800781 3.75 -1.84375 C 4.050781 -1.882812 4.421875 -1.96875 4.859375 -2.09375 C 5.304688 -2.226562 5.726562 -2.425781 6.125 -2.6875 C 6.519531 -2.945312 6.867188 -3.289062 7.171875 -3.71875 C 7.472656 -4.144531 7.628906 -4.671875 7.640625 -5.296875 L 7.640625 -7.484375 L 4.65625 -7.484375 L 4.65625 -4.015625 Z M 2.296875 -4.015625 "/></g></g></g><g fill="#ff751f" fill-opacity="1"><g transform="translate(64.764165, 77.813717)"><g><path d="M 0.78125 -4.65625 L 0.78125 -7.109375 L 8 -7.109375 L 8 -4.65625 Z M 0.78125 -4.65625 "/></g></g></g><g fill="#ff751f" fill-opacity="1"><g transform="translate(73.512028, 77.813717)"><g><path d="M 7.75 -10.4375 L 7.75 -12.6875 L 8.828125 -12.6875 L 8.828125 -10.4375 Z M 9.4375 -10.4375 L 9.4375 -12.6875 L 10.515625 -12.6875 L 10.515625 -10.4375 Z M 1.40625 -11.9375 L 3.796875 -11.9375 L 3.796875 -9.875 L 10.484375 -9.875 L 10.484375 -7.421875 L 3.796875 -7.421875 L 3.796875 -3.375 C 3.816406 -2.976562 3.941406 -2.660156 4.171875 -2.421875 C 4.410156 -2.191406 4.851562 -2.0625 5.5 -2.03125 C 6.414062 -2.019531 7.234375 -2.039062 7.953125 -2.09375 C 8.671875 -2.144531 9.515625 -2.25 10.484375 -2.40625 L 10.484375 0.09375 C 9.546875 0.195312 8.6875 0.269531 7.90625 0.3125 C 7.125 0.363281 6.257812 0.378906 5.3125 0.359375 C 4.164062 0.304688 3.242188 0.0078125 2.546875 -0.53125 C 1.847656 -1.070312 1.46875 -1.941406 1.40625 -3.140625 Z M 1.40625 -11.9375 "/></g></g></g><g fill="#ff751f" fill-opacity="1"><g transform="translate(84.931114, 77.813717)"><g><path d="M 1.296875 -9.171875 L 1.296875 -11.6875 L 10.28125 -11.6875 C 10.0625 -10.476562 9.722656 -9.359375 9.265625 -8.328125 C 8.816406 -7.296875 8.320312 -6.363281 7.78125 -5.53125 C 8.25 -4.914062 8.710938 -4.351562 9.171875 -3.84375 C 9.640625 -3.332031 10.039062 -2.9375 10.375 -2.65625 C 10.71875 -2.382812 10.894531 -2.242188 10.90625 -2.234375 L 10.90625 0.75 C 10.34375 0.34375 9.832031 -0.0507812 9.375 -0.4375 C 8.914062 -0.820312 8.425781 -1.285156 7.90625 -1.828125 C 7.382812 -2.378906 6.878906 -2.984375 6.390625 -3.640625 C 5.753906 -2.859375 5.101562 -2.175781 4.4375 -1.59375 C 3.78125 -1.019531 3.171875 -0.554688 2.609375 -0.203125 C 2.046875 0.148438 1.59375 0.40625 1.25 0.5625 C 0.90625 0.726562 0.726562 0.8125 0.71875 0.8125 L 0.71875 -1.984375 C 1.625 -2.441406 2.4375 -3.003906 3.15625 -3.671875 C 3.882812 -4.335938 4.566406 -5.09375 5.203125 -5.9375 C 5.835938 -6.78125 6.421875 -7.859375 6.953125 -9.171875 Z M 1.296875 -9.171875 "/></g></g></g><g clip-path="url(#56993506bd)"><path fill="#1a1a1a" d="M 113.855469 91.386719 C 112.917969 91.796875 112.195312 92.480469 111.734375 93.3125 C 110.621094 91.328125 108.160156 90.472656 106.042969 91.398438 C 105.058594 91.828125 104.296875 92.585938 103.847656 93.472656 C 102.625 91.867188 100.425781 91.242188 98.488281 92.085938 C 97.574219 92.488281 96.847656 93.160156 96.386719 93.980469 L 92.878906 85.90625 C 91.894531 83.640625 89.242188 82.601562 86.976562 83.589844 C 84.714844 84.578125 83.675781 87.226562 84.660156 89.496094 L 93.222656 109.195312 C 91.34375 108.222656 88.972656 108.707031 87.632812 110.449219 C 86.121094 112.40625 86.492188 115.234375 88.445312 116.746094 L 102.355469 127.492188 L 102.511719 127.621094 C 103.484375 128.355469 104.578125 128.890625 105.738281 129.1875 C 107.75 129.730469 109.835938 129.570312 111.761719 128.726562 L 122.824219 123.898438 C 127.476562 121.867188 129.613281 116.421875 127.582031 111.746094 L 119.742188 93.710938 C 118.757812 91.441406 116.117188 90.398438 113.855469 91.386719 Z M 125.949219 112.464844 C 127.585938 116.230469 125.859375 120.621094 122.113281 122.261719 L 111.050781 127.089844 C 109.5 127.765625 107.824219 127.886719 106.191406 127.453125 C 105.246094 127.210938 104.375 126.785156 103.601562 126.195312 L 89.539062 115.332031 C 88.363281 114.417969 88.144531 112.722656 89.054688 111.546875 C 89.339844 111.179688 89.703125 110.90625 90.109375 110.730469 C 90.976562 110.351562 92.019531 110.433594 92.820312 111.0625 L 94.648438 112.472656 L 95.664062 114.808594 C 95.859375 115.261719 96.386719 115.46875 96.839844 115.273438 C 97.292969 115.074219 97.507812 114.542969 97.3125 114.089844 L 86.3125 88.78125 C 85.71875 87.421875 86.339844 85.839844 87.699219 85.246094 C 89.058594 84.652344 90.644531 85.269531 91.234375 86.632812 L 99.300781 105.191406 C 99.5 105.644531 100.023438 105.851562 100.476562 105.65625 C 100.941406 105.453125 101.144531 104.925781 100.949219 104.472656 L 97.820312 97.277344 C 97.230469 95.917969 97.847656 94.328125 99.203125 93.734375 C 100.570312 93.136719 102.152344 93.769531 102.75 95.140625 L 103.730469 97.316406 L 106.566406 103.84375 C 106.765625 104.296875 107.289062 104.507812 107.746094 104.308594 C 108.195312 104.109375 108.402344 103.585938 108.207031 103.128906 L 105.367188 96.59375 C 104.773438 95.230469 105.402344 93.644531 106.761719 93.054688 C 108.121094 92.460938 109.707031 93.078125 110.296875 94.4375 L 114.019531 103.003906 C 114.21875 103.457031 114.742188 103.664062 115.195312 103.464844 C 115.648438 103.269531 115.855469 102.742188 115.660156 102.289062 L 113.179688 96.582031 C 112.585938 95.21875 113.210938 93.625 114.570312 93.035156 C 115.929688 92.441406 117.519531 93.066406 118.113281 94.429688 Z M 125.949219 112.464844 " fill-opacity="1" fill-rule="nonzero"/></g><path fill="#ffffff" d="M 118.109375 94.425781 L 125.949219 112.464844 C 127.585938 116.230469 125.859375 120.621094 122.113281 122.261719 L 111.050781 127.089844 C 109.5 127.765625 107.824219 127.886719 106.191406 127.453125 C 105.246094 127.210938 104.375 126.785156 103.601562 126.195312 L 89.539062 115.332031 C 88.363281 114.417969 88.144531 112.722656 89.054688 111.546875 C 89.339844 111.179688 89.703125 110.90625 90.109375 110.730469 C 90.976562 110.351562 92.019531 110.433594 92.820312 111.0625 L 94.648438 112.472656 L 95.664062 114.808594 C 95.859375 115.261719 96.386719 115.46875 96.839844 115.273438 C 97.292969 115.074219 97.507812 114.542969 97.3125 114.089844 L 86.3125 88.78125 C 85.71875 87.421875 86.339844 85.839844 87.699219 85.246094 C 89.058594 84.652344 90.644531 85.269531 91.234375 86.632812 L 99.300781 105.191406 C 99.5 105.644531 100.023438 105.851562 100.476562 105.65625 C 100.941406 105.453125 101.144531 104.925781 100.949219 104.472656 L 97.820312 97.277344 C 97.230469 95.917969 97.847656 94.328125 99.203125 93.734375 C 100.570312 93.136719 102.152344 93.769531 102.75 95.140625 L 103.730469 97.316406 L 106.566406 103.84375 C 106.765625 104.296875 107.289062 104.507812 107.746094 104.308594 C 108.195312 104.109375 108.402344 103.585938 108.207031 103.128906 L 105.367188 96.59375 C 104.773438 95.230469 105.402344 93.644531 106.761719 93.054688 C 108.121094 92.460938 109.707031 93.078125 110.296875 94.4375 L 114.019531 103.003906 C 114.21875 103.457031 114.742188 103.664062 115.195312 103.464844 C 115.648438 103.269531 115.855469 102.742188 115.660156 102.289062 L 113.179688 96.582031 C 112.585938 95.21875 113.210938 93.625 114.570312 93.035156 C 115.925781 92.4375 117.515625 93.0625 118.109375 94.425781 Z M 118.109375 94.425781 " fill-opacity="1" fill-rule="nonzero"/><path fill="#1a1a1a" d="M 85.398438 80.777344 C 85.082031 80.777344 84.78125 80.59375 84.648438 80.285156 L 81.828125 73.800781 C 81.648438 73.382812 81.839844 72.898438 82.253906 72.71875 C 82.667969 72.535156 83.152344 72.726562 83.335938 73.144531 L 86.152344 79.625 C 86.332031 80.042969 86.140625 80.527344 85.726562 80.710938 C 85.621094 80.757812 85.507812 80.777344 85.398438 80.777344 Z M 85.398438 80.777344 " fill-opacity="1" fill-rule="nonzero"/><path fill="#1a1a1a" d="M 89.328125 80.535156 C 89.25 80.535156 89.171875 80.523438 89.09375 80.5 C 88.660156 80.371094 88.414062 79.914062 88.539062 79.480469 L 90.539062 72.695312 C 90.667969 72.261719 91.125 72.011719 91.558594 72.140625 C 91.996094 72.269531 92.242188 72.726562 92.113281 73.164062 L 90.113281 79.945312 C 90.007812 80.304688 89.683594 80.535156 89.328125 80.535156 Z M 89.328125 80.535156 " fill-opacity="1" fill-rule="nonzero"/><path fill="#1a1a1a" d="M 93.539062 81.945312 C 93.273438 81.945312 93.011719 81.816406 92.851562 81.578125 C 92.601562 81.199219 92.707031 80.6875 93.082031 80.4375 L 98.964844 76.53125 C 99.34375 76.277344 99.851562 76.382812 100.101562 76.761719 C 100.351562 77.140625 100.25 77.652344 99.871094 77.902344 L 93.992188 81.808594 C 93.851562 81.902344 93.691406 81.945312 93.539062 81.945312 Z M 93.539062 81.945312 " fill-opacity="1" fill-rule="nonzero"/><g clip-path="url(#c6b6dd87b6)"><path fill="#1a1a1a" d="M 74.269531 89.136719 C 73.898438 89.136719 73.5625 88.882812 73.472656 88.503906 C 73.363281 88.0625 73.636719 87.617188 74.078125 87.511719 L 80.9375 85.859375 C 81.378906 85.75 81.820312 86.023438 81.925781 86.464844 C 82.03125 86.90625 81.761719 87.351562 81.320312 87.457031 L 74.460938 89.113281 C 74.398438 89.128906 74.332031 89.136719 74.269531 89.136719 Z M 74.269531 89.136719 " fill-opacity="1" fill-rule="nonzero"/></g><path fill="#1a1a1a" d="M 82.542969 83.496094 C 82.421875 83.496094 82.296875 83.46875 82.179688 83.410156 L 75.863281 80.257812 C 75.457031 80.054688 75.292969 79.5625 75.492188 79.15625 C 75.695312 78.75 76.1875 78.582031 76.59375 78.785156 L 82.910156 81.9375 C 83.316406 82.136719 83.484375 82.632812 83.28125 83.039062 C 83.136719 83.328125 82.847656 83.496094 82.542969 83.496094 Z M 82.542969 83.496094 " fill-opacity="1" fill-rule="nonzero"/></svg>